<?xml version="1.0" encoding="UTF-8" standalone="no"?>
<!DOCTYPE svg PUBLIC "-//W3C//DTD SVG 1.1//EN" "http://www.w3.org/Graphics/SVG/1.1/DTD/svg11.dtd">
<!-- Created with Vectornator (http://vectornator.io/) -->
<svg height="100%" stroke-miterlimit="10" style="fill-rule:nonzero;clip-rule:evenodd;stroke-linecap:round;stroke-linejoin:round;" version="1.1" viewBox="0 0 250 250" width="100%" xml:space="preserve" xmlns="http://www.w3.org/2000/svg" xmlns:vectornator="http://vectornator.io" xmlns:xlink="http://www.w3.org/1999/xlink">
<defs/>
<clipPath id="ArtboardFrame">
<rect height="250" width="250" x="0" y="0"/>
</clipPath>
<g clip-path="url(#ArtboardFrame)" id="Layer-1" vectornator:layerName="Layer 1">
<path d="M43.2425 0.174987C35.9326 0.174993 30.0068 6.40951 30.0068 14.1002L30.0068 235.163C30.0068 242.853 35.9326 249.088 43.2425 249.088L206.758 249.088C214.067 249.088 219.993 242.853 219.993 235.163L219.993 14.1002C219.993 6.4095 214.067 0.174988 206.758 0.174987L43.2425 0.174987ZM85.1553 24.8705C96.5531 24.8705 105.767 34.5063 105.767 46.411C105.767 58.3157 96.5531 67.9878 85.1553 67.9878C73.7574 67.9878 64.5091 58.3156 64.5091 46.411C64.5091 34.5063 73.7574 24.8705 85.1553 24.8705ZM139.132 34.9155L192.178 34.9155C195.223 34.9155 197.693 37.5132 197.693 40.7176L197.693 52.8296C197.693 56.0341 195.223 58.6318 192.178 58.6318L139.132 58.6318C136.086 58.6318 133.617 56.0341 133.617 52.8296L133.617 40.7176C133.617 37.5132 136.086 34.9155 139.132 34.9155ZM85.5344 71.3603C102.067 71.4748 115.39 85.5147 115.28 102.728L55.4096 102.329C55.5196 85.1158 69.0021 71.2457 85.5344 71.3603ZM138.856 75.1317L191.902 75.1317C194.948 75.1317 197.417 77.7294 197.417 80.9339L197.417 93.0459C197.417 96.2503 194.948 98.8481 191.902 98.8481L138.856 98.8481C135.81 98.8481 133.341 96.2503 133.341 93.0459L133.341 80.9339C133.341 77.7294 135.81 75.1317 138.856 75.1317ZM65.9567 126.916L184.043 126.916C190.822 126.916 196.314 130.321 196.314 134.495L196.314 150.27C196.314 154.444 190.822 157.813 184.043 157.813L65.9567 157.813C59.1778 157.813 53.6862 154.444 53.6862 150.27L53.6862 134.495C53.6862 130.321 59.1778 126.916 65.9567 126.916ZM65.9567 178.809L184.043 178.809C190.822 178.809 196.314 182.214 196.314 186.388L196.314 202.163C196.314 206.337 190.822 209.742 184.043 209.742L65.9567 209.742C59.1778 209.742 53.6862 206.337 53.6862 202.163L53.6862 186.388C53.6862 182.214 59.1778 178.809 65.9567 178.809Z" fill="#5e6472" fill-rule="evenodd" opacity="1" stroke="#5e6472" stroke-linecap="round" stroke-linejoin="round" stroke-width="1"/>
</g>
</svg>
